<svg width="26" height="26" viewBox="0 0 26 26" fill="none" xmlns="http://www.w3.org/2000/svg">
<g filter="url(#filter0_d)">
<path d="M20.1047 8.10465C20.3624 8.10465 20.5727 8.19283 20.7355 8.36919C20.9118 8.53198 21 8.74225 21 9C21 9.25775 20.9118 9.47481 20.7355 9.65116C20.5727 9.81395 20.3624 9.89535 20.1047 9.89535H13.8953V16.0843C13.8953 16.3421 13.8072 16.5591 13.6308 16.7355C13.468 16.9118 13.2578 17 13 17C12.7422 17 12.5252 16.9118 12.3488 16.7355C12.186 16.5591 12.1047 16.3421 12.1047 16.0843V9.89535H5.89535C5.6376 9.89535 5.42054 9.81395 5.24419 9.65116C5.0814 9.47481 5 9.25775 5 9C5 8.74225 5.0814 8.53198 5.24419 8.36919C5.42054 8.19283 5.6376 8.10465 5.89535 8.10465H12.1047V1.89535C12.1047 1.6376 12.186 1.42733 12.3488 1.26454C12.5252 1.08818 12.7422 1 13 1C13.2578 1 13.468 1.08818 13.6308 1.26454C13.8072 1.42733 13.8953 1.6376 13.8953 1.89535V8.10465H20.1047Z" fill="url(#paint0_linear)"/>
<path d="M11.9814 17.0746L11.9882 17.082L11.9953 17.089C12.2689 17.3626 12.6146 17.5 13 17.5C13.3824 17.5 13.7272 17.3641 13.9913 17.082C14.2603 16.8096 14.3953 16.4664 14.3953 16.0843V10.3953H20.1047C20.4777 10.3953 20.8209 10.2729 21.089 10.0047C21.3626 9.73114 21.5 9.3854 21.5 9C21.5 8.62086 21.3664 8.27869 21.0892 8.01546C20.826 7.73826 20.4838 7.60465 20.1047 7.60465H14.3953V1.89535C14.3953 1.5162 14.2617 1.17403 13.9845 0.910794C13.7213 0.633609 13.3791 0.5 13 0.5C12.6146 0.5 12.2689 0.637408 11.9953 0.910982L12.3418 1.25749L11.9953 0.910982C11.7271 1.17913 11.6047 1.52232 11.6047 1.89535V7.60465H5.89535C5.50995 7.60465 5.16421 7.74206 4.89063 8.01563C4.62249 8.28378 4.5 8.62697 4.5 9C4.5 9.37329 4.62209 9.71438 4.87678 9.9903L4.89035 10.005L4.90505 10.0186C5.18096 10.2733 5.52206 10.3953 5.89535 10.3953H11.6047V16.0843C11.6047 16.4576 11.7267 16.7987 11.9814 17.0746Z" stroke="black"/>
</g>
<defs>
<filter id="filter0_d" x="0" y="0" width="26" height="26" filterUnits="userSpaceOnUse" color-interpolation-filters="sRGB">
<feFlood flood-opacity="0" result="BackgroundImageFix"/>
<feColorMatrix in="SourceAlpha" type="matrix" values="0 0 0 0 0 0 0 0 0 0 0 0 0 0 0 0 0 0 127 0"/>
<feOffset dy="4"/>
<feGaussianBlur stdDeviation="2"/>
<feColorMatrix type="matrix" values="0 0 0 0 0 0 0 0 0 0 0 0 0 0 0 0 0 0 0.25 0"/>
<feBlend mode="normal" in2="BackgroundImageFix" result="effect1_dropShadow"/>
<feBlend mode="normal" in="SourceGraphic" in2="effect1_dropShadow" result="shape"/>
</filter>
<linearGradient id="paint0_linear" x1="21" y1="17" x2="9.89685" y2="-1.87982" gradientUnits="userSpaceOnUse">
<stop stop-color="#15B6D6"/>
<stop offset="1" stop-color="#15D6D6"/>
</linearGradient>
</defs>
</svg>
